<svg width="2226" height="653" viewBox="0 0 2226 653" fill="none" xmlns="http://www.w3.org/2000/svg">
<path d="M638.748 342.815C638.748 422.794 573.912 487.629 493.933 487.629V487.629C413.954 487.629 349.119 422.794 349.119 342.815V342.815C349.119 262.836 413.955 198 493.933 198V198C573.912 198 638.748 262.836 638.748 342.815V342.815Z" fill="url(#paint0_linear_9645_8533)"/>
<path d="M502.498 254.59C506.321 249.536 514.351 253.089 513.181 259.317L495.361 354.16C494.828 356.997 492.35 359.052 489.464 359.052H435.556C430.601 359.052 427.782 353.385 430.771 349.433L502.498 254.59Z" fill="white"/>
<path d="M474.172 437.86C470.349 442.915 462.319 439.362 463.489 433.133L481.309 338.291C481.842 335.454 484.32 333.398 487.206 333.398L541.114 333.398C546.069 333.398 548.888 339.065 545.899 343.018L474.172 437.86Z" fill="white"/>
<rect x="247.096" y="288.583" width="83.909" height="22.8843" rx="11.4421" fill="#9D9FA0" fill-opacity="0.7"/>
<rect x="247.096" y="374.4" width="83.909" height="22.8843" rx="11.4421" fill="#9D9FA0" fill-opacity="0.7"/>
<rect x="295.816" y="417.308" width="52.4432" height="22.8843" rx="11.4421" fill="#9D9FA0" fill-opacity="0.7"/>
<rect x="295.816" y="245.676" width="52.4432" height="22.8843" rx="11.4421" fill="#9D9FA0" fill-opacity="0.7"/>
<rect x="203.234" y="331.492" width="108.7" height="22.8843" rx="11.4421" fill="#9D9FA0" fill-opacity="0.7"/>
<rect x="167" y="331.492" width="22.8843" height="22.8843" rx="11.4421" fill="#9D9FA0" fill-opacity="0.7"/>
<path d="M826.495 410.156L888.229 459.042L858.615 484.738L797.822 435.852L826.495 410.156ZM889.795 324.606V335.418C889.795 352.757 887.445 368.321 882.745 382.11C878.149 395.898 871.516 407.649 862.846 417.364C854.176 426.974 843.939 434.338 832.136 439.456C820.332 444.575 807.223 447.134 792.808 447.134C778.497 447.134 765.388 444.575 753.48 439.456C741.572 434.338 731.283 426.974 722.613 417.364C713.943 407.649 707.206 395.898 702.401 382.11C697.7 368.321 695.35 352.757 695.35 335.418V324.606C695.35 307.162 697.7 291.598 702.401 277.914C707.206 264.126 713.891 252.375 722.456 242.66C731.022 232.946 741.258 225.529 753.166 220.411C765.075 215.293 778.184 212.734 792.494 212.734C806.909 212.734 820.019 215.293 831.822 220.411C843.73 225.529 854.019 232.946 862.689 242.66C871.359 252.375 878.044 264.126 882.745 277.914C887.445 291.598 889.795 307.162 889.795 324.606ZM842.32 335.418V324.293C842.32 312.176 841.171 301.521 838.873 292.329C836.679 283.137 833.441 275.407 829.159 269.14C824.98 262.873 819.81 258.172 813.647 255.038C807.484 251.8 800.433 250.181 792.494 250.181C784.556 250.181 777.505 251.8 771.342 255.038C765.179 258.172 760.008 262.873 755.83 269.14C751.652 275.407 748.466 283.137 746.272 292.329C744.079 301.521 742.982 312.176 742.982 324.293V335.418C742.982 347.43 744.079 358.085 746.272 367.381C748.466 376.573 751.652 384.355 755.83 390.727C760.113 396.995 765.336 401.747 771.499 404.986C777.766 408.224 784.869 409.843 792.808 409.843C800.746 409.843 807.745 408.224 813.803 404.986C819.966 401.747 825.137 396.995 829.315 390.727C833.598 384.355 836.836 376.573 839.03 367.381C841.223 358.085 842.32 347.43 842.32 335.418ZM1024.46 403.419V274.467H1069.59V444H1027.13L1024.46 403.419ZM1029.48 368.635L1042.79 368.321C1042.79 379.603 1041.49 390.101 1038.88 399.815C1036.27 409.425 1032.35 417.781 1027.13 424.884C1021.9 431.883 1015.32 437.367 1007.38 441.336C999.445 445.201 990.097 447.134 979.338 447.134C971.085 447.134 963.46 445.985 956.462 443.687C949.567 441.284 943.613 437.576 938.6 432.562C933.69 427.444 929.825 420.915 927.005 412.976C924.289 404.933 922.931 395.271 922.931 383.99V274.467H968.056V384.303C968.056 389.317 968.631 393.548 969.78 396.995C971.033 400.442 972.757 403.262 974.95 405.456C977.144 407.649 979.703 409.216 982.628 410.156C985.657 411.096 989 411.566 992.656 411.566C1001.95 411.566 1009.26 409.686 1014.59 405.926C1020.02 402.165 1023.84 397.047 1026.03 390.571C1028.33 383.99 1029.48 376.678 1029.48 368.635ZM1154.9 274.467V444H1109.62V274.467H1154.9ZM1106.8 230.282C1106.8 223.701 1109.1 218.27 1113.69 213.987C1118.29 209.704 1124.45 207.563 1132.18 207.563C1139.81 207.563 1145.92 209.704 1150.51 213.987C1155.21 218.27 1157.56 223.701 1157.56 230.282C1157.56 236.863 1155.21 242.295 1150.51 246.577C1145.92 250.86 1139.81 253.002 1132.18 253.002C1124.45 253.002 1118.29 250.86 1113.69 246.577C1109.1 242.295 1106.8 236.863 1106.8 230.282ZM1265.44 411.88C1270.97 411.88 1275.88 410.835 1280.17 408.746C1284.45 406.552 1287.79 403.523 1290.19 399.658C1292.7 395.689 1294.01 391.041 1294.11 385.713H1336.57C1336.47 397.621 1333.28 408.224 1327.01 417.52C1320.75 426.712 1312.34 433.972 1301.79 439.299C1291.24 444.522 1279.43 447.134 1266.38 447.134C1253.22 447.134 1241.73 444.94 1231.91 440.553C1222.19 436.166 1214.1 430.107 1207.62 422.378C1201.14 414.543 1196.29 405.456 1193.05 395.114C1189.81 384.669 1188.19 373.492 1188.19 361.584V357.04C1188.19 345.028 1189.81 333.851 1193.05 323.51C1196.29 313.064 1201.14 303.976 1207.62 296.246C1214.1 288.412 1222.19 282.302 1231.91 277.914C1241.62 273.527 1253.01 271.334 1266.06 271.334C1279.96 271.334 1292.13 273.997 1302.57 279.325C1313.12 284.652 1321.37 292.277 1327.33 302.2C1333.39 312.019 1336.47 323.666 1336.57 337.141H1294.11C1294.01 331.5 1292.8 326.382 1290.51 321.786C1288.31 317.19 1285.08 313.534 1280.79 310.818C1276.61 307.998 1271.44 306.588 1265.28 306.588C1258.7 306.588 1253.32 307.998 1249.14 310.818C1244.96 313.534 1241.73 317.294 1239.43 322.099C1237.13 326.8 1235.51 332.179 1234.57 338.238C1233.73 344.192 1233.32 350.459 1233.32 357.04V361.584C1233.32 368.165 1233.73 374.484 1234.57 380.543C1235.41 386.601 1236.97 391.981 1239.27 396.681C1241.67 401.382 1244.96 405.09 1249.14 407.806C1253.32 410.522 1258.75 411.88 1265.44 411.88ZM1411.07 203.176V444H1365.95V203.176H1411.07ZM1517.93 274.467L1444.29 358.45L1404.81 398.405L1388.35 365.814L1419.69 326.017L1463.72 274.467H1517.93ZM1471.08 444L1420.94 365.658L1452.12 338.395L1523.1 444H1471.08Z" fill="#5C5F61" fill-opacity="0.6"/>
<path d="M1650.07 343.879H1591.47L1591.15 311.602H1640.35C1649.02 311.602 1656.12 310.505 1661.66 308.311C1667.2 306.013 1671.32 302.723 1674.04 298.44C1676.86 294.053 1678.27 288.726 1678.27 282.458C1678.27 275.355 1676.91 269.61 1674.19 265.223C1671.58 260.836 1667.46 257.65 1661.82 255.665C1656.28 253.68 1649.13 252.688 1640.35 252.688H1607.76V444H1560.76V215.867H1640.35C1653.62 215.867 1665.47 217.121 1675.92 219.628C1686.47 222.135 1695.4 225.947 1702.71 231.066C1710.02 236.184 1715.61 242.66 1719.48 250.495C1723.34 258.224 1725.27 267.416 1725.27 278.071C1725.27 287.472 1723.13 296.142 1718.85 304.081C1714.67 312.019 1708.04 318.496 1698.95 323.51C1689.97 328.523 1678.22 331.292 1663.7 331.814L1650.07 343.879ZM1648.03 444H1578.62L1596.95 407.336H1648.03C1656.28 407.336 1663.02 406.03 1668.24 403.419C1673.46 400.703 1677.33 397.047 1679.84 392.451C1682.34 387.855 1683.6 382.58 1683.6 376.626C1683.6 369.94 1682.45 364.143 1680.15 359.234C1677.96 354.324 1674.4 350.564 1669.49 347.952C1664.58 345.236 1658.11 343.879 1650.07 343.879H1604.78L1605.1 311.602H1661.5L1672.31 324.293C1686.21 324.084 1697.38 326.539 1705.85 331.657C1714.41 336.671 1720.63 343.2 1724.49 351.243C1728.46 359.286 1730.44 367.904 1730.44 377.096C1730.44 391.72 1727.26 404.045 1720.89 414.073C1714.51 423.997 1705.17 431.465 1692.84 436.479C1680.62 441.493 1665.68 444 1648.03 444ZM1758.88 360.957V357.667C1758.88 345.236 1760.66 333.799 1764.21 323.353C1767.76 312.803 1772.93 303.663 1779.72 295.933C1786.51 288.203 1794.86 282.197 1804.79 277.914C1814.71 273.527 1826.1 271.334 1838.95 271.334C1851.79 271.334 1863.23 273.527 1873.26 277.914C1883.29 282.197 1891.7 288.203 1898.49 295.933C1905.38 303.663 1910.6 312.803 1914.15 323.353C1917.71 333.799 1919.48 345.236 1919.48 357.667V360.957C1919.48 373.283 1917.71 384.721 1914.15 395.271C1910.6 405.717 1905.38 414.857 1898.49 422.691C1891.7 430.421 1883.34 436.427 1873.42 440.71C1863.49 444.992 1852.11 447.134 1839.26 447.134C1826.41 447.134 1814.97 444.992 1804.94 440.71C1795.02 436.427 1786.61 430.421 1779.72 422.691C1772.93 414.857 1767.76 405.717 1764.21 395.271C1760.66 384.721 1758.88 373.283 1758.88 360.957ZM1804 357.667V360.957C1804 368.06 1804.63 374.693 1805.89 380.856C1807.14 387.019 1809.12 392.451 1811.84 397.151C1814.66 401.747 1818.32 405.351 1822.81 407.963C1827.3 410.574 1832.78 411.88 1839.26 411.88C1845.53 411.88 1850.91 410.574 1855.4 407.963C1859.89 405.351 1863.49 401.747 1866.21 397.151C1868.92 392.451 1870.91 387.019 1872.16 380.856C1873.52 374.693 1874.2 368.06 1874.2 360.957V357.667C1874.2 350.773 1873.52 344.296 1872.16 338.238C1870.91 332.075 1868.87 326.643 1866.05 321.943C1863.34 317.138 1859.73 313.377 1855.24 310.661C1850.75 307.946 1845.32 306.588 1838.95 306.588C1832.57 306.588 1827.14 307.946 1822.65 310.661C1818.26 313.377 1814.66 317.138 1811.84 321.943C1809.12 326.643 1807.14 332.075 1805.89 338.238C1804.63 344.296 1804 350.773 1804 357.667ZM2033.47 274.467V306.431H1934.75V274.467H2033.47ZM1959.2 232.633H2004.32V392.921C2004.32 397.83 2004.95 401.591 2006.2 404.202C2007.56 406.814 2009.55 408.642 2012.16 409.686C2014.77 410.626 2018.06 411.096 2022.03 411.096C2024.85 411.096 2027.36 410.992 2029.55 410.783C2031.85 410.47 2033.78 410.156 2035.35 409.843L2035.5 443.06C2031.64 444.313 2027.46 445.306 2022.97 446.037C2018.48 446.768 2013.52 447.134 2008.08 447.134C1998.16 447.134 1989.49 445.515 1982.07 442.276C1974.76 438.934 1969.12 433.607 1965.15 426.295C1961.18 418.983 1959.2 409.373 1959.2 397.465V232.633Z" fill="url(#paint1_linear_9645_8533)"/>
<defs>
<linearGradient id="paint0_linear_9645_8533" x1="423.319" y1="235.665" x2="663.204" y2="253.711" gradientUnits="userSpaceOnUse">
<stop stop-color="#82AFF9"/>
<stop offset="1" stop-color="#866CCF"/>
</linearGradient>
<linearGradient id="paint1_linear_9645_8533" x1="1404.5" y1="141.5" x2="1860.55" y2="22.7626" gradientUnits="userSpaceOnUse">
<stop stop-color="#82AEF8"/>
<stop offset="0.973014" stop-color="#7051CA"/>
</linearGradient>
</defs>
</svg>
