<svg width="181" height="180" viewBox="0 0 181 180" fill="none" xmlns="http://www.w3.org/2000/svg">
<path d="M54.2386 60.6302C60.0486 58.3902 65.4386 61.9402 70.1086 64.9202C72.6786 66.5602 75.2486 67.3902 78.3086 67.1602C81.4786 66.9202 84.5886 65.9402 87.7886 66.1602C93.7786 66.5802 98.7086 70.5002 104.479 71.9702C104.949 72.0902 104.859 72.7802 104.369 72.7802H47.3086C48.0486 70.4702 48.9186 68.2002 49.8686 65.9702C50.5086 64.4702 51.3086 62.5402 52.6486 61.5102C53.1186 61.1402 53.6586 60.8502 54.2386 60.6302Z" fill="#4285F4"/>
<path d="M106.039 38.04C104.699 41.17 104.139 44.68 104.619 48.3C106.049 59.03 115.899 66.56 126.619 65.14C130.769 64.59 134.069 63.28 136.929 60.64C130.409 49.03 119.019 40.53 106.039 38.04Z" fill="#FBBC04" stroke="#FBBC04" stroke-miterlimit="10"/>
<path d="M94.8672 36.7197V125.834" stroke="#3C4043" stroke-miterlimit="10" stroke-linecap="round" stroke-linejoin="round"/>
<path d="M143.429 92.9204H46.3086" stroke="#3C4043" stroke-miterlimit="10" stroke-linecap="round" stroke-linejoin="round"/>
<path d="M143.998 85.5609C143.998 58.4691 121.998 36.5 94.8683 36.5C67.7383 36.5 45.7383 58.4691 45.7383 85.5609V143H143.998V85.5609Z" stroke="#3C4043" stroke-miterlimit="10" stroke-linecap="round" stroke-linejoin="round"/>
<path d="M110.608 133.01C108.838 131.719 109.419 129.026 111.569 128.48C111.859 128.41 112.149 128.321 112.439 128.202C114.849 127.297 124.319 120.482 128.129 120.869C128.129 120.869 130.869 120.949 130.879 122.658C130.889 124.108 126.719 124.615 125.999 125.042C124.239 126.085 123.149 128.023 121.589 129.294C119.969 130.606 118.409 131.957 116.379 132.513C115.459 132.762 111.459 133.616 110.629 133.03C110.639 133.03 110.628 133.02 110.608 133.01Z" fill="white"/>
<path d="M111.68 133.268C111.68 133.268 117.52 133.02 122.42 128.152" stroke="#3C4043" stroke-miterlimit="10" stroke-linecap="round" stroke-linejoin="round"/>
<path d="M128.388 123.84C128.768 123.582 131.788 122.936 130.988 121.664C130.428 120.78 128.168 120.8 127.338 120.82C125.228 120.879 122.278 121.863 120.668 123.264" stroke="#3C4043" stroke-miterlimit="10" stroke-linecap="round" stroke-linejoin="round"/>
<path d="M65.1187 129.851C65.1187 129.851 61.0187 133.785 63.6287 136.219C65.1187 137.62 72.5887 138.713 73.5987 140.531C74.7787 142.648 71.2287 142.985 71.2287 142.985C71.2287 142.985 61.0187 143.293 59.8087 141.078C58.5987 138.862 57.6687 129.662 65.1187 129.851Z" fill="white" stroke="#3C4043" stroke-miterlimit="10"/>
<path d="M60.5195 135L62.7798 133.974C62.7798 133.974 64.1198 129.861 64.9598 129.593C64.9698 129.593 60.5195 131.115 60.5195 135Z" fill="#3C4043"/>
<path d="M129.47 143C134.75 143 139.03 138.72 139.03 133.44C139.03 128.16 134.75 123.88 129.47 123.88C124.19 123.88 119.91 128.16 119.91 133.44C119.91 138.72 124.19 143 129.47 143Z" fill="#34A853" stroke="#34A853" stroke-miterlimit="10"/>
<path d="M132.52 124.377C131.562 124.054 130.537 123.88 129.47 123.88C124.19 123.88 119.91 128.16 119.91 133.44C119.91 138.72 124.19 143 129.47 143C133.298 143 136.601 140.75 138.128 137.5" stroke="#3C4043" stroke-miterlimit="10" stroke-linecap="round" stroke-linejoin="round"/>
<path d="M135.619 140.08C134.809 138.34 132.169 137.69 123.729 138.25C115.289 138.81 113.389 134.68 111.589 133.13C111.419 132.99 111.299 132.84 111.169 132.69L110.469 130.92C110.469 131.1 110.489 131.29 110.529 131.48C110.479 131.28 110.459 131.08 110.459 130.89L110.469 130.92C110.479 130.35 110.679 129.85 110.989 129.52C110.999 129.51 111.009 129.49 111.029 129.48C111.069 129.44 111.119 129.41 111.169 129.37C111.269 129.31 111.359 129.24 111.469 129.21C111.499 129.2 111.509 129.18 111.529 129.15C111.609 129.12 111.679 129.08 111.759 129.07C112.849 128.92 119.209 127.65 120.429 126.64C121.649 125.64 121.479 123.91 121.479 123.91C121.479 123.91 119.819 122.46 118.949 121.57C118.079 120.68 118.379 119.16 117.399 116.99C116.419 114.83 113.019 114.23 112.089 113.04C111.249 111.97 111.949 108.25 111.949 108.24C111.909 108.41 110.069 108.87 109.839 109.07C109.349 109.49 108.939 109.99 108.579 110.52C107.879 111.55 107.379 112.7 106.649 113.72C104.669 116.47 101.059 118.37 97.6591 117.94C95.2891 117.64 93.0091 116.73 90.8691 115.71C85.7091 113.24 80.9891 109.83 76.5191 106.29C61.519 93.9999 49.8491 100.27 46.0991 104.86C42.1891 109.64 40.6191 109.88 35.3591 107.41C27.2891 103.62 25.629 98.7199 22.519 93.4999C20.279 86.7399 19.519 81.4999 20.519 74.4999C20.889 73.2099 20.6489 70.7299 19.5189 69.9999C18.3189 69.2299 17.0591 71.9099 16.3491 73.1499C16.3491 76.4999 15.5391 78.3599 15.5391 81.0999C15.5391 88.2099 17.7189 93.5399 20.5189 99.9999C23.5289 104.93 27.9189 108.34 33.0189 111C34.7689 111.63 36.5291 112.56 37.8491 113.87C39.2991 115.3 39.7591 117.43 40.3091 119.39C44.5189 129 50.0189 135 57.6091 142.4C58.7291 143.33 70.5491 142.62 70.5491 142.62C70.5491 142.62 72.5789 143.05 71.5189 141.5C70.4689 139.95 61.5589 138.05 60.5189 137C59.6389 136.11 59.9089 133.93 60.5189 133C63.1389 129.02 68.7991 128.62 73.0491 129.12C79.5791 129.89 84.0191 135.26 89.7691 137.85C94.7991 140.11 100.379 140.64 105.569 142.37C108.549 143.36 129.469 143.13 130.519 143C131.579 142.88 136.429 141.82 135.619 140.08ZM110.679 131.94C110.669 131.91 110.649 131.88 110.639 131.84C110.659 131.87 110.669 131.9 110.679 131.94Z" fill="white"/>
<path d="M116.37 122.23C116.801 122.23 117.15 121.881 117.15 121.45C117.15 121.019 116.801 120.67 116.37 120.67C115.939 120.67 115.59 121.019 115.59 121.45C115.59 121.881 115.939 122.23 116.37 122.23Z" fill="#3C4043"/>
<path d="M68.5586 119.413C68.8786 122.1 68.9986 126.473 66.8985 128.55C65.4584 129.978 63.2983 130.358 61.7582 131.666C60.1882 133.004 59.6181 134.901 60.6182 136.779C61.6482 138.706 69.5686 139.425 71.7587 141.272C72.4487 141.862 72.0087 143 71.0987 143H60.0882C57.7881 143 56.108 140.673 54.6279 139.215C51.6178 136.22 48.8277 133.084 46.0875 129.849C46.0875 129.849 41.8674 125.635 39.5072 115.719C38.6472 112.114 33.347 111.285 30.5869 109.687C18.1663 102.447 14.2161 86.8594 16.7462 73.4683C16.9262 72.5097 17.4863 70.6623 18.4463 70.2129C21.6265 68.725 20.5164 75.4755 20.3364 76.8036C18.6263 89.0763 24.7866 103.765 37.0871 108.189C40.4973 109.417 41.6273 110.226 43.8574 107.51C46.5076 104.275 49.7377 101.289 53.7779 99.9509C60.4882 97.724 68.0586 99.132 74.7888 105.014C81.5191 110.895 87.0194 114.332 90.5195 116" stroke="#3C4043" stroke-miterlimit="10" stroke-linecap="round" stroke-linejoin="round"/>
<path d="M114.118 128.56C114.118 128.56 112.668 131.98 113.058 132.98L111.128 133.19C111.128 133.19 110.118 130.56 111.118 129.39C112.118 128.22 114.118 128.56 114.118 128.56Z" fill="#3C4043"/>
<path d="M65.3398 129.59C65.3398 129.59 73.4098 127.48 78.9998 131.08C84.5898 134.68 89.9298 140.02 105.57 142.5C105.57 142.5 122.02 143 130.52 143C130.52 143 136.798 142.278 135.62 140.08C134.72 138.4 131.09 137.97 128.57 138.06C126.12 138.15 123.01 137.97 118.23 137.53C113.45 137.1 110.28 131.88 110.66 130.08C111.03 128.28 112.27 128.78 115.25 128.28C117.96 127.83 121.01 127.41 121.43 124.77C121.51 124.29 121.3 123.8 120.91 123.51C120.23 122.99 119.14 122.1 118.94 121.59C118.03 119.17 118.51 116.93 116.13 115.54C114.85 114.79 112.32 114.25 111.91 112.55C111.61 111.32 112.25 110.16 112.17 108.94C112.1 107.78 110.94 108.12 110.26 108.64C109.59 109.16 109.05 109.85 108.57 110.55C106.99 112.84 104.45 118.42 98.7998 117.87C93.1498 117.32 90.5198 116 90.5198 116" stroke="#3C4043" stroke-miterlimit="10" stroke-linecap="round" stroke-linejoin="round"/>
</svg>
