<svg width="468" height="332" viewBox="0 0 468 332" fill="none" xmlns="http://www.w3.org/2000/svg">
<path d="M377.09 309.455H82.5039V0.643066H380.96V21.7356V132.013" fill="white"/>
<path d="M377.09 309.455H82.5039V0.643066H380.96V21.7356V132.013" stroke="#3C4043" stroke-miterlimit="10" stroke-linecap="round" stroke-linejoin="round"/>
<path d="M150.059 252.615H308.256" stroke="#3C4043" stroke-miterlimit="10" stroke-linecap="round" stroke-linejoin="round"/>
<path d="M150.059 230.406H308.256" stroke="#3C4043" stroke-miterlimit="10" stroke-linecap="round" stroke-linejoin="round"/>
<path d="M150.059 208.197H308.256" stroke="#3C4043" stroke-miterlimit="10" stroke-linecap="round" stroke-linejoin="round"/>
<path d="M150.059 185.987H308.256" stroke="#3C4043" stroke-miterlimit="10" stroke-linecap="round" stroke-linejoin="round"/>
<path d="M150.059 163.778H308.256" stroke="#3C4043" stroke-miterlimit="10" stroke-linecap="round" stroke-linejoin="round"/>
<path d="M150.059 141.579H308.256" stroke="#3C4043" stroke-miterlimit="10" stroke-linecap="round" stroke-linejoin="round"/>
<path d="M82.5039 17.2998H380.96" stroke="#3C4043" stroke-miterlimit="10" stroke-linecap="round" stroke-linejoin="round"/>
<path d="M93.7021 12.243C95.2397 12.243 96.4861 10.9977 96.4861 9.4616C96.4861 7.92546 95.2397 6.68018 93.7021 6.68018C92.1645 6.68018 90.918 7.92546 90.918 9.4616C90.918 10.9977 92.1645 12.243 93.7021 12.243Z" fill="white" stroke="#3C4043" stroke-miterlimit="10" stroke-linecap="round" stroke-linejoin="round"/>
<path d="M105.304 12.243C106.841 12.243 108.088 10.9977 108.088 9.4616C108.088 7.92546 106.841 6.68018 105.304 6.68018C103.766 6.68018 102.52 7.92546 102.52 9.4616C102.52 10.9977 103.766 12.243 105.304 12.243Z" fill="white" stroke="#3C4043" stroke-miterlimit="10" stroke-linecap="round" stroke-linejoin="round"/>
<path d="M335.623 55.9663H127.84V89.7649H335.623V55.9663Z" fill="url(#paint0_linear_8084_2412)"/>
<path d="M127.84 89.7544H335.623" stroke="#3C4043" stroke-miterlimit="10" stroke-linecap="round" stroke-linejoin="round"/>
<path d="M319.328 89.7542H325.097C325.097 89.7542 327.659 89.7542 327.659 86.3933C327.659 80.1456 321.553 64.2894 319.318 58.8424C316.238 51.3621 306.157 51.0565 292.711 51.794C278.621 52.5631 269.636 56.9249 267.074 66.8496C264.511 76.7848 261.59 83.064 261.906 89.7964C262.223 96.5287 267.675 95.886 273.127 95.5594C278.579 95.2433 308.74 89.9123 308.74 89.9123L307.454 80.6198C307.454 80.6198 284.601 79.9876 276.903 81.589" fill="white"/>
<path d="M319.328 89.7542H325.097C325.097 89.7542 327.659 89.7542 327.659 86.3933C327.659 80.1456 321.553 64.2894 319.318 58.8424C316.238 51.3621 306.157 51.0565 292.711 51.794C278.621 52.5631 269.636 56.9249 267.074 66.8496C264.511 76.7848 261.59 83.064 261.906 89.7964C262.223 96.5287 267.675 95.886 273.127 95.5594C278.579 95.2433 308.74 89.9123 308.74 89.9123L307.454 80.6198C307.454 80.6198 284.601 79.9876 276.903 81.589" stroke="#3C4043" stroke-miterlimit="10" stroke-linecap="round" stroke-linejoin="round"/>
<path d="M278.369 69.3042L276.871 81.5467" stroke="#3C4043" stroke-miterlimit="10" stroke-linecap="round" stroke-linejoin="round"/>
<path d="M308.752 89.9229L319.139 89.67C319.139 89.67 320.721 89.67 318.844 87.3522C316.967 85.0343 311.22 83.6541 307.855 83.4961L308.752 89.9229Z" fill="#A06549" stroke="#3C4043" stroke-miterlimit="10" stroke-linecap="round" stroke-linejoin="round"/>
<path d="M308.867 64.2578C309.331 67.25 311.64 74.2246 312.737 77.9121C308.635 78.4599 297.836 80.5039 297.836 80.5039" stroke="#3C4043" stroke-miterlimit="10" stroke-linecap="round" stroke-linejoin="round"/>
<path d="M283.136 41.6482C282.271 45.6834 283.136 53.385 285.319 55.8398C287.502 58.2946 290.233 56.1137 291.33 54.7441C291.33 56.3771 291.056 58.1576 291.056 58.1576C293.239 59.2534 298.975 55.5659 299.25 51.4675C298.427 49.8344 298.564 50.2348 298.29 49.2866C298.701 47.6535 300.884 47.6535 300.336 41.9221C299.788 36.1907 294.873 34.2837 291.045 34.5576C287.217 34.8316 283.948 37.8237 283.136 41.6482Z" fill="#A06549" stroke="#3C4043" stroke-miterlimit="10" stroke-linecap="round" stroke-linejoin="round"/>
<path d="M283.137 41.6482C285.773 42.923 290.455 42.3751 293.124 41.6482C293.124 44.1978 293.124 46.4419 293.124 46.4419C294.705 44.3769 295.971 45.0512 295.971 46.4419C295.971 47.8326 295.423 47.9274 294.336 49.8344C293.24 51.7414 296.72 50.8564 298.302 49.2865C300.421 47.1899 301.286 46.2101 300.347 41.9221C298.892 35.2846 294.705 34.5576 291.057 34.5576C287.408 34.5576 283.421 39.3092 283.137 41.6482Z" fill="#3C4043"/>
<path d="M289.992 55.9664L293.23 52.5845C293.23 52.5845 293.43 55.977 291.057 58.1473C289.992 57.3045 289.992 55.9664 289.992 55.9664Z" fill="#3C4043" stroke="#3C4043" stroke-miterlimit="10" stroke-linecap="round" stroke-linejoin="round"/>
<path d="M382.046 131.971H374.221H237.906V166.823H353.414H362.979H445.69V131.971H382.046Z" fill="white" stroke="#3C4043" stroke-miterlimit="10" stroke-linecap="round" stroke-linejoin="round"/>
<path d="M281.371 138.134H279.385H244.793V153.938H274.105H276.533H297.522V138.134H281.371Z" fill="#4285F4" stroke="#4285F4" stroke-miterlimit="10" stroke-linecap="round" stroke-linejoin="round"/>
<path d="M237.906 166.823L366.744 172.428V166.823H237.906Z" fill="#3C4043" stroke="#3C4043" stroke-miterlimit="10" stroke-linecap="round" stroke-linejoin="round"/>
<path d="M280.564 101.333L82.5039 102.039V107.201L280.564 101.333Z" fill="#3C4043" stroke="#3C4043" stroke-miterlimit="10" stroke-linecap="round" stroke-linejoin="round"/>
<path d="M280.65 67.5449H72.8984V101.259H280.65V67.5449Z" fill="white" stroke="#3C4043" stroke-miterlimit="10" stroke-linecap="round" stroke-linejoin="round"/>
<path d="M280.65 67.5449H72.8984V74.9199H280.65V67.5449Z" fill="#FBBC04" stroke="#FBBC04" stroke-miterlimit="10" stroke-linecap="round" stroke-linejoin="round"/>
<path d="M280.65 78.0806V67.5449H72.8984V78.0806" stroke="#3C4043" stroke-miterlimit="10" stroke-linecap="round" stroke-linejoin="round"/>
<path d="M450.668 327.44C450.668 320.416 453.518 303.78 458.526 292.729" stroke="#3C4043" stroke-miterlimit="10" stroke-linecap="round" stroke-linejoin="round"/>
<path d="M450.668 327.44C451.976 323.7 463.302 307.896 466.94 304.272C466.94 312.163 459.621 323.268 450.668 327.44Z" stroke="#3C4043" stroke-miterlimit="10" stroke-linecap="round" stroke-linejoin="round"/>
<path d="M450.669 327.44C449.973 321.034 444.362 296.517 438.109 291.555C436.179 301.964 445.754 320.549 450.669 327.44Z" stroke="#3C4043" stroke-miterlimit="10" stroke-linecap="round" stroke-linejoin="round"/>
<path d="M460.011 292.935C461.781 292.935 463.216 291.502 463.216 289.733C463.216 287.964 461.781 286.53 460.011 286.53C458.24 286.53 456.805 287.964 456.805 289.733C456.805 291.502 458.24 292.935 460.011 292.935Z" stroke="#3C4043" stroke-miterlimit="10" stroke-linecap="round" stroke-linejoin="round"/>
<path d="M414.053 310.478C414.053 310.478 416.827 315.724 413.494 319.106C410.172 322.488 403.708 325.196 401.852 326.555C400.47 327.567 408.759 328.336 415.667 327.493C417.965 327.208 419.98 326.229 421.941 325.554C429.418 322.973 431.38 320.413 431.38 320.413L424.019 304.904L414.053 310.478Z" fill="white" stroke="#3C4043" stroke-miterlimit="10" stroke-linecap="round" stroke-linejoin="round"/>
<path d="M371.279 311.994C371.279 311.994 370.668 318.084 365.753 320.286C360.839 322.488 354.301 324.047 354.132 325.87C353.9 328.377 367.683 327.903 375.983 327.903C384.282 327.903 385.126 326.376 385.126 326.376L384.62 309.961L371.279 311.994Z" fill="white" stroke="#3C4043" stroke-miterlimit="10" stroke-linecap="round" stroke-linejoin="round"/>
<path d="M407.441 194.279C407.895 203.256 411.554 201.538 410.151 221.251C408.738 240.963 407.895 252.795 411.28 263.214C414.665 273.634 425.654 306.358 425.654 306.358C425.654 306.358 422.015 309.456 419.189 310.762C416.363 312.069 411.828 312.838 411.828 312.838C411.828 312.838 389.007 273.413 385.348 251.162" fill="url(#paint1_linear_8084_2412)"/>
<path d="M407.441 194.279C407.895 203.256 411.554 201.538 410.151 221.251C408.738 240.963 407.895 252.795 411.28 263.214C414.665 273.634 425.654 306.358 425.654 306.358C425.654 306.358 422.015 309.456 419.189 310.762C416.363 312.069 411.828 312.838 411.828 312.838C411.828 312.838 389.007 273.413 385.348 251.162" stroke="#3C4043" stroke-miterlimit="10" stroke-linecap="round" stroke-linejoin="round"/>
<path d="M425.654 306.348C425.654 306.348 422.015 309.445 419.189 310.752C416.363 312.058 411.828 312.827 411.828 312.827" stroke="#3C4043" stroke-miterlimit="10" stroke-linecap="round" stroke-linejoin="round"/>
<path d="M344.853 165.232C344.853 165.232 336.037 163.304 334.539 163.304C333.042 163.304 332.831 164.695 334.539 165.116C336.248 165.538 338.178 165.97 338.388 166.823C334.539 166.823 328.465 166.823 328.465 166.823C329.519 168.583 331.818 169.457 334.972 170.195C337.83 170.858 341.383 171.417 344.8 171.417C346.994 171.322 363.34 180.098 363.34 179.192C363.35 177.39 363.34 173.587 363.34 169.099C355.304 168.298 344.853 165.232 344.853 165.232Z" fill="#FE8160" stroke="#3C4043" stroke-miterlimit="10" stroke-linecap="round" stroke-linejoin="round"/>
<path d="M434.282 136.375L428.756 136.217L419.645 159.743C419.645 159.743 427.185 168.224 429.294 159.279C431.255 150.925 433.365 143.529 434.282 136.375Z" fill="#FE8160" stroke="#3C4043" stroke-miterlimit="10" stroke-linecap="round" stroke-linejoin="round"/>
<path d="M372.492 198.852C372.492 200.168 375.572 201.201 377.807 201.359C380.043 201.517 379.241 198.251 379.241 198.251L372.492 198.852Z" fill="#3C4043" stroke="#3C4043" stroke-miterlimit="10" stroke-linecap="round" stroke-linejoin="round"/>
<path d="M401.388 221.872C401.388 221.872 398.773 228.921 396.801 234.505C394.512 240.973 385.517 313.112 385.517 313.112C385.517 313.112 379.928 314.671 376.532 314.723C372.883 314.776 367.863 313.112 367.863 313.112C367.863 313.112 368.148 290.86 370.679 262.424C373.21 233.988 377.65 195.122 377.65 195.122L407.431 198.536" fill="url(#paint2_linear_8084_2412)"/>
<path d="M401.388 221.872C401.388 221.872 398.773 228.921 396.801 234.505C394.512 240.974 385.517 313.112 385.517 313.112C385.517 313.112 379.928 314.671 376.532 314.723C372.883 314.776 367.863 313.112 367.863 313.112C367.863 313.112 368.148 290.86 370.679 262.424C373.21 233.988 377.65 195.122 377.65 195.122L407.431 198.536" stroke="#D2E3FC" stroke-miterlimit="10" stroke-linecap="round" stroke-linejoin="round"/>
<path d="M421.332 155.687L420.773 157.056C420.773 157.056 415.51 145.941 414.477 143.887C413.422 141.558 410.079 139.419 408.761 138.872C405.355 137.165 396.612 136.406 391.719 136.406C380.498 136.406 373.549 137.881 370.659 148.775C367.77 159.669 366.399 169.562 366.399 169.562L363.351 169.077L361.906 179.171C365.639 180.667 369.9 182.795 373.275 182.827L373.138 183.185C372.61 187.188 372.494 192.435 372.494 198.851C383.114 197.671 397.235 197.671 408.498 198.535C408.498 198.535 408.36 179.255 410.448 167.539C413.201 170.7 415.489 173.439 417.641 173.956C420.92 174.746 423.24 172.207 425.655 168.403C426.984 166.307 427.923 163.188 429.304 159.269L421.332 155.687Z" fill="white" stroke="#3C4043" stroke-miterlimit="10" stroke-linecap="round" stroke-linejoin="round"/>
<path d="M384.358 154.043C381.88 164.41 379.549 180.309 376.027 182.237C372.505 184.154 366.757 181.13 361.906 179.192" fill="white"/>
<path d="M384.358 154.043C381.88 164.41 379.549 180.309 376.027 182.237C372.505 184.154 366.757 181.13 361.906 179.192" stroke="#3C4043" stroke-miterlimit="10" stroke-linecap="round" stroke-linejoin="round"/>
<path d="M366.4 169.573L365.113 180.456" stroke="#3C4043" stroke-miterlimit="10" stroke-linecap="round" stroke-linejoin="round"/>
<path d="M403.36 124.986C403.36 120.15 399.437 116.23 394.596 116.23C389.756 116.23 385.495 120.392 384.915 125.312C384.704 127.114 384.557 130.527 385.495 131.929C386.423 133.309 388.901 133.119 390.757 133.088L389.903 136.417L398.203 137.966L399.785 131.507C401.947 130.159 403.36 127.883 403.36 124.986Z" fill="#FE8160" stroke="#3C4043" stroke-miterlimit="10" stroke-linecap="round" stroke-linejoin="round"/>
<path d="M393.122 126.06C393.459 125.407 393.997 124.859 394.229 124.164C394.461 123.468 394.208 122.51 393.48 122.373C392.826 122.246 392.225 122.857 391.561 122.805C391.139 122.172 391.023 121.361 391.244 120.645C391.403 120.139 391.719 119.654 391.666 119.128C391.614 118.548 391.128 118.116 390.802 117.642C390.084 116.62 390.032 115.177 390.654 114.102C390.759 113.912 390.918 113.723 391.139 113.723C391.603 113.733 391.561 114.513 391.962 114.766C392.204 113.923 392.963 113.259 393.828 113.133C393.965 113.112 394.123 113.112 394.239 113.196C394.387 113.301 394.408 113.491 394.482 113.66C394.798 114.376 395.842 114.302 396.581 114.028C397.319 113.754 398.205 113.407 398.816 113.902C399.344 114.334 399.312 115.166 399.723 115.704C400.135 116.251 400.873 116.399 401.463 116.715C402.391 117.21 403.161 117.895 403.678 118.801C404.722 120.624 404.627 123.858 404.469 125.165C404.121 128.22 401.505 130.822 399.048 132.519C396.844 134.046 394.429 132.171 393.354 130.116C392.71 128.873 392.457 127.356 393.122 126.06Z" fill="#FBBC04" stroke="#3C4043" stroke-miterlimit="10" stroke-linecap="round" stroke-linejoin="round"/>
<path d="M428.112 136.912C428.112 136.912 426.478 132.498 425.813 131.423C425.149 130.348 427.068 130.243 427.827 131.086C428.587 131.929 429.726 132.666 429.726 132.666C429.726 132.666 427.332 131.191 427.975 130.559C429.399 129.158 430.169 129.21 431.508 129.326C433.143 129.463 435.347 130.58 435.937 131.76C436.348 132.571 434.893 134.447 434.25 137.66" fill="#FE8160"/>
<path d="M428.112 136.912C428.112 136.912 426.478 132.498 425.813 131.423C425.149 130.348 427.068 130.243 427.827 131.086C428.587 131.929 429.726 132.666 429.726 132.666C429.726 132.666 427.332 131.191 427.975 130.559C429.399 129.158 430.169 129.21 431.508 129.326C433.143 129.463 435.347 130.58 435.937 131.76C436.348 132.571 434.893 134.447 434.25 137.66" stroke="#3C4043" stroke-miterlimit="10" stroke-linecap="round" stroke-linejoin="round"/>
<path d="M369.836 314.06C369.836 314.06 374.74 318.864 384.368 316.788C384.558 314.713 384.463 313.491 384.463 313.491C384.463 313.491 380.688 314.903 376.533 314.713C372.377 314.523 369.836 314.06 369.836 314.06Z" fill="#3C4043" stroke="#3C4043" stroke-miterlimit="10" stroke-linecap="round" stroke-linejoin="round"/>
<path d="M424.696 307.738C424.696 307.738 421.216 314.123 414.941 317.041C415.395 314.576 414.941 312.332 414.941 312.332C414.941 312.332 418.422 311.32 419.877 310.425C421.332 309.529 424.696 307.738 424.696 307.738Z" fill="#3C4043" stroke="#3C4043" stroke-miterlimit="10" stroke-linecap="round" stroke-linejoin="round"/>
<path d="M401.388 221.872C401.388 221.872 398.773 228.92 396.801 234.504C394.512 240.973 385.517 313.111 385.517 313.111C385.517 313.111 379.928 314.671 376.532 314.723C372.883 314.776 367.863 313.111 367.863 313.111" fill="url(#paint3_linear_8084_2412)"/>
<path d="M401.388 221.872C401.388 221.872 398.773 228.92 396.801 234.504C394.512 240.973 385.517 313.111 385.517 313.111C385.517 313.111 379.928 314.671 376.532 314.723C372.883 314.776 367.863 313.111 367.863 313.111" stroke="#3C4043" stroke-miterlimit="10" stroke-linecap="round" stroke-linejoin="round"/>
<path d="M427.995 162.251L420.781 157.057" stroke="#3C4043" stroke-miterlimit="10" stroke-linecap="round" stroke-linejoin="round"/>
<path d="M410.438 167.54C410.975 164.168 411.155 156.309 411.155 156.309L410.438 167.54Z" fill="white"/>
<path d="M410.438 167.54C410.975 164.168 411.155 156.309 411.155 156.309" stroke="#3C4043" stroke-miterlimit="10" stroke-linecap="round" stroke-linejoin="round"/>
<path d="M393.418 114.176C391.994 109.646 390.528 106.738 392.658 106.253C394.683 105.8 396.518 113.902 396.518 113.902" fill="white"/>
<path d="M393.418 114.176C391.994 109.646 390.528 106.738 392.658 106.253C394.683 105.8 396.518 113.902 396.518 113.902" stroke="#3C4043" stroke-miterlimit="10" stroke-linecap="round" stroke-linejoin="round"/>
<path d="M393.418 114.176C398.396 112.311 403.953 114.829 405.82 119.802C407.686 124.775 405.166 130.327 400.188 132.192C397.098 127.588 394.589 119.865 393.418 114.176Z" fill="white" stroke="#3C4043" stroke-miterlimit="10" stroke-linecap="round" stroke-linejoin="round"/>
<path d="M34.9947 284.117L28.5512 293.156L21.6016 287.541L27.8341 278.417L34.9947 284.117Z" fill="#F9CCBA" stroke="#3C4043" stroke-miterlimit="10" stroke-linecap="round" stroke-linejoin="round"/>
<path d="M21.6046 287.541L13.6953 298.172L16.5427 300.732C16.5427 300.732 22.4167 306.137 27.215 308.012C32.0239 309.898 36.4215 309.339 36.4215 309.339C36.4215 309.339 37.7608 307.085 34.6814 305.62C29.7776 303.292 27.5103 298.277 29.5983 293.557L21.6046 287.541Z" fill="white" stroke="#3C4043" stroke-miterlimit="10" stroke-linecap="round" stroke-linejoin="round"/>
<path d="M34.9974 284.117L27.0459 280.924L25.2109 283.358L34.9974 284.117Z" fill="#3C4043" stroke="#3C4043" stroke-miterlimit="10" stroke-linecap="round" stroke-linejoin="round"/>
<path d="M54.5044 191.434C55.696 208.586 58.9968 270.368 58.4696 285.581C54.9684 287.214 49.1366 286.983 43.0727 286.983C35.8383 262.276 27.4439 224.295 27.4439 207.975C27.4439 191.655 30.2385 180.013 31.9048 172.976H63.5737C66.864 195.153 70.1332 225.328 70.1332 239.319C70.1332 243.291 70.4285 244.555 65.704 251.382C56.9721 263.994 41.8178 281.978 38.6435 286.983C32.5797 285.35 29.0785 282.083 25.1133 277.427C31.1771 266.238 40.0461 243.407 40.0461 243.407" fill="url(#paint4_linear_8084_2412)"/>
<path d="M54.5044 191.434C55.696 208.586 58.9969 270.368 58.4696 285.581C54.9684 287.214 49.1366 286.983 43.0727 286.983C35.8383 262.276 27.4439 224.295 27.4439 207.975C27.4439 191.655 30.2385 180.013 31.9048 172.976H63.5737C66.864 195.153 70.1332 225.328 70.1332 239.319C70.1332 243.291 70.4285 244.555 65.704 251.382C56.9721 263.994 41.8178 281.978 38.6435 286.983C32.5797 285.35 29.0785 282.083 25.1133 277.427C31.1771 266.238 40.0461 243.407 40.0461 243.407" stroke="#3C4043" stroke-miterlimit="10" stroke-linecap="round" stroke-linejoin="round"/>
<path d="M41.7967 282.515C40.7105 283.927 39.4344 285.729 38.6435 286.972C32.5797 285.339 29.0785 282.073 25.1133 277.416" stroke="#3C4043" stroke-miterlimit="10" stroke-linecap="round" stroke-linejoin="round"/>
<path d="M65.7066 251.382C63.9033 253.995 60.2756 258.863 58.082 261.771" stroke="#3C4043" stroke-miterlimit="10" stroke-linecap="round" stroke-linejoin="round"/>
<path d="M54.5058 191.434C55.6974 208.586 58.9983 270.368 58.471 285.581C54.9698 287.214 49.138 286.983 43.0742 286.983C35.8397 262.276 27.4453 224.295 27.4453 207.975C27.4453 191.655 30.2399 180.013 31.9062 172.976" fill="url(#paint5_linear_8084_2412)"/>
<path d="M54.5058 191.434C55.6974 208.586 58.9983 270.368 58.471 285.581C54.9698 287.214 49.138 286.983 43.0742 286.983C35.8397 262.276 27.4453 224.295 27.4453 207.975C27.4453 191.655 30.2399 180.013 31.9062 172.976" stroke="#3C4043" stroke-miterlimit="10" stroke-linecap="round" stroke-linejoin="round"/>
<path d="M29.1328 149.723L33.3511 162.366L45.4788 166.58L58.661 147.089L34.4057 143.929L29.1328 149.723Z" fill="white"/>
<path d="M60.6541 172.986H31.9063C31.9063 165.274 30.8307 154.096 28.9219 148.88" fill="white"/>
<path d="M60.6541 172.986H31.9063C31.9063 165.274 30.8307 154.096 28.9219 148.88" stroke="#3C4043" stroke-miterlimit="10" stroke-linecap="round" stroke-linejoin="round"/>
<path d="M33.7095 146.994C27.5297 149.46 17.6272 163.778 17.6272 163.778C21.5714 165.99 29.9447 169.32 31.9168 170.068C33.8888 170.816 30.5353 184.638 27.4875 184.554C24.4398 184.47 8.2415 179.055 2.89479 174.83C-1.97736 170.984 2.38859 160.533 4.17083 156.624C7.10256 150.197 20.9913 127.198 36.578 126.934C39.9105 129.473 48.4736 131.707 54.0523 126.776C60.306 127.461 73.3195 132.497 78.0229 132.497C83.1903 126.439 85.4471 119.496 87.6934 116.135C89.9396 112.774 102.5 118.801 101.645 121.94C100.781 125.08 92.3019 142.148 89.0221 146.194C86.9024 148.807 84.3187 148.764 80.7226 148.764C77.1265 148.764 65.02 148.533 65.02 148.533" fill="white"/>
<path d="M33.7095 146.994C27.5297 149.46 17.6272 163.778 17.6272 163.778C21.5714 165.99 29.9447 169.32 31.9168 170.068C33.8888 170.816 30.5353 184.638 27.4875 184.554C24.4398 184.47 8.2415 179.055 2.89479 174.83C-1.97736 170.984 2.38859 160.533 4.17083 156.624C7.10256 150.197 20.9913 127.198 36.578 126.934C39.9105 129.473 48.4736 131.707 54.0523 126.776C60.306 127.461 73.3195 132.497 78.0229 132.497C83.1903 126.439 85.4471 119.496 87.6934 116.135C89.9396 112.774 102.5 118.801 101.645 121.94C100.781 125.08 92.3019 142.148 89.0221 146.194C86.9024 148.807 84.3187 148.764 80.7226 148.764C77.1265 148.764 65.0199 148.533 65.0199 148.533" stroke="#3C4043" stroke-miterlimit="10" stroke-linecap="round" stroke-linejoin="round"/>
<path d="M60.1986 136.438C66.2624 147.205 65.6297 153.958 63.5733 172.975H39.5078" fill="white"/>
<path d="M60.1986 136.438C66.2624 147.205 65.6297 153.958 63.5733 172.975H39.5078" stroke="#3C4043" stroke-miterlimit="10" stroke-linecap="round" stroke-linejoin="round"/>
<path d="M101.641 121.944C102.201 120.601 99.5301 118.212 95.6752 116.608C91.8204 115.004 88.2415 114.792 87.6817 116.135C87.1218 117.477 89.793 119.866 93.6478 121.47C97.5027 123.075 101.082 123.286 101.641 121.944Z" fill="#3C4043" stroke="#3C4043" stroke-miterlimit="10" stroke-linecap="round" stroke-linejoin="round"/>
<path d="M32.7549 178.034C33.7137 173.973 33.3421 170.411 31.9249 170.077C30.5077 169.743 28.5816 172.764 27.6228 176.824C26.664 180.885 27.0356 184.448 28.4528 184.782C29.87 185.116 31.7961 182.094 32.7549 178.034Z" fill="#3C4043" stroke="#3C4043" stroke-miterlimit="10" stroke-linecap="round" stroke-linejoin="round"/>
<path d="M88.0742 117.674C88.0742 117.674 94.1697 107.696 95.5195 105.347C96.8694 102.997 98.5462 101.986 101.921 101.986C105.295 101.986 111.37 101.986 114.396 101.986C114.776 103.176 113.384 104.177 112.34 104.335C110.642 104.588 104.051 106.506 101.109 107.949C97.4178 112.827 96.7112 122.425 96.7112 122.425C96.7112 122.425 93.5475 121.551 91.5332 120.381C89.519 119.222 88.0742 117.674 88.0742 117.674Z" fill="#F9CCBA" stroke="#3C4043" stroke-miterlimit="10" stroke-linecap="round" stroke-linejoin="round"/>
<path d="M30.7147 170.921C34.1948 172.217 40.3535 172.712 41.5136 173.039L40.1215 180.435C38.9826 180.119 32.1067 179.623 27.7408 178.907C27.6037 175.788 28.8481 172.67 30.7147 170.921Z" fill="#F9CCBA" stroke="#3C4043" stroke-miterlimit="10" stroke-linecap="round" stroke-linejoin="round"/>
<path d="M48.9602 126.028C48.2219 124.185 47.8528 122.899 47.8528 121.793C47.8528 120.687 49.8776 121.256 51.354 120.518C52.8305 119.781 52.0922 117.368 51.5333 115.156C50.9744 112.943 49.0972 105.505 44.3411 104.652C39.1737 103.735 33.6477 106.864 33.4579 112.016C33.268 117.168 36.2314 119.865 39.5428 120.308C42.3058 120.676 41.7574 123.437 40.8294 125.839C39.6799 126.165 37.5496 126.713 36.5583 126.935C38.7413 128.915 42.0632 129.716 45.2269 129.758C45.7753 129.769 47.6841 133.656 48.2219 133.625C48.8652 133.583 48.127 129.59 48.7281 129.495C51.4911 129.031 53.6425 127.999 54.0327 126.777L48.9602 126.028Z" fill="#F9CCBA" stroke="#3C4043" stroke-miterlimit="10" stroke-linecap="round" stroke-linejoin="round"/>
<path d="M44.3513 104.662C44.4567 107.422 43.4232 110.92 42.4319 112.764C41.3457 112.269 39.69 112.89 39.69 114.45C39.69 116.009 41.4617 116.42 42.6218 116.451C43.012 119.18 43.4232 122.741 41.6937 125.322C37.5071 131.591 28.3955 126.028 29.1232 121.414C29.8508 116.799 28.8384 116.767 29.3446 113.68C30.2305 108.149 36.8743 103.366 44.3513 104.662Z" fill="#EA4335" stroke="#3C4043" stroke-miterlimit="10" stroke-linecap="round" stroke-linejoin="round"/>
<path d="M54.3065 286.593V298.108H45.7433L45.332 287.004L54.3065 286.593Z" fill="#F9CCBA" stroke="#3C4043" stroke-miterlimit="10" stroke-linecap="round" stroke-linejoin="round"/>
<path d="M44.6656 296.001L44.5391 309.455H69.5115C69.174 307.432 68.3198 306.231 65.3459 305.388C62.8782 304.693 54.9688 299.699 54.2939 296.001H44.6656Z" fill="white" stroke="#3C4043" stroke-miterlimit="10" stroke-linecap="round" stroke-linejoin="round"/>
<path d="M55.3612 286.593L46.3867 287.004L46.4816 289.585L55.3612 286.593Z" fill="#3C4043" stroke="#3C4043" stroke-miterlimit="10" stroke-linecap="round" stroke-linejoin="round"/>
<path d="M41.5142 173.039L39.2891 184.923" stroke="#3C4043" stroke-miterlimit="10" stroke-linecap="round" stroke-linejoin="round"/>
<path d="M34.9966 255.881L32.7188 261.212C32.7188 261.212 36.7156 270.094 41.883 282.821C39.1728 273.454 34.9966 255.881 34.9966 255.881Z" fill="#3C4043" stroke="#3C4043" stroke-miterlimit="10" stroke-linecap="round" stroke-linejoin="round"/>
<path d="M174.562 320.055C168.656 324.617 155.78 326.492 141.828 324.617C138.59 324.185 138.611 327.029 141.29 327.83C143.968 328.631 163.763 333.414 176.407 325.66C189.052 317.905 178.548 316.978 174.562 320.055Z" fill="white" stroke="#3C4043" stroke-miterlimit="10" stroke-linecap="round" stroke-linejoin="round"/>
<path d="M234.195 293.485C231.464 306.897 231 323.976 233.12 326.746C235.117 329.358 236.884 328.304 236.884 330.938C233.657 330.938 230.915 330.938 228.975 330.938C227.467 326.208 226.012 311.996 226.012 302.957C226.012 293.917 235.535 286.911 234.195 293.485Z" fill="white" stroke="#3C4043" stroke-miterlimit="10" stroke-linecap="round" stroke-linejoin="round"/>
<path d="M234.194 293.146C233.635 295.885 233.171 298.783 232.813 301.68L226.169 308.676C226.063 306.516 226 304.451 226 302.618C226 293.578 235.523 286.582 234.194 293.146Z" fill="#3C4043" stroke="#3C4043" stroke-miterlimit="10" stroke-linecap="round" stroke-linejoin="round"/>
<path d="M217.716 235.455C219.024 233.739 223.36 229.866 225.751 229.866C228.822 229.866 230.087 231.15 232.042 230.718C233.998 230.287 238.557 228.35 242.468 226.634C247.187 239.676 237.42 242.666 234.816 246.108C231.904 249.95 233.573 261.034 236.825 270.286C240.077 279.539 239.598 287.063 235.55 292.307C228.642 301.254 219.608 304.412 214.826 307.044C206.855 312.307 204.73 314.412 198.353 320.727L198.353 320.727L184.665 330.938C181.2 330.938 175.717 330.165 173.378 325.559C167.281 313.554 172.183 305.593 177.826 298.277C183.47 290.972 200.999 279.539 206.43 272.876C211.861 266.213 211.861 263.623 213.593 256.96C215.325 250.297 216.409 237.171 217.716 235.455Z" fill="white" stroke="#3C4043" stroke-miterlimit="10" stroke-linecap="round" stroke-linejoin="round"/>
<path d="M242.17 226.634L238.848 228.088C240.662 229.342 241.98 229.574 243.024 229.595C242.655 228.109 242.17 226.634 242.17 226.634Z" fill="#3C4043" stroke="#3C4043" stroke-miterlimit="10" stroke-linecap="round" stroke-linejoin="round"/>
<path d="M197.024 309.866C200.228 313.856 201.847 322.702 193.809 325.91C206.83 325.91 206.83 328.092 206.83 330.938C204.204 330.938 187.347 330.938 183.629 330.938" fill="white"/>
<path d="M197.024 309.866C200.228 313.856 201.847 322.702 193.809 325.91C206.83 325.91 206.83 328.092 206.83 330.938C204.204 330.938 187.347 330.938 183.629 330.938" stroke="#3C4043" stroke-miterlimit="10" stroke-linecap="round" stroke-linejoin="round"/>
<path d="M223.639 291.956C221.698 294.326 219.325 298.846 218.682 302.07C218.039 305.294 216.098 322.309 217.174 326.176C217.975 329.062 221.593 327.587 221.593 330.938C218.577 330.938 212.101 330.938 212.101 330.938C211.574 328.304 211.047 324.09 211.047 320.402C211.047 320.402 211.353 300.131 211.353 294.316" fill="white"/>
<path d="M223.639 291.956C221.698 294.326 219.325 298.846 218.682 302.07C218.039 305.294 216.098 322.309 217.174 326.176C217.975 329.062 221.593 327.587 221.593 330.938C218.577 330.938 212.101 330.938 212.101 330.938C211.574 328.304 211.047 324.089 211.047 320.402C211.047 320.402 211.353 300.131 211.353 294.316" stroke="#3C4043" stroke-miterlimit="10" stroke-linecap="round" stroke-linejoin="round"/>
<path d="M216.309 238.477C214.801 239.772 211.142 244.292 210.92 248.38C210.709 252.468 211.353 252.257 213.726 253.111C216.098 253.964 218.893 255.26 220.833 255.049C222.774 254.839 223.649 252.457 222.552 249.665C220.622 244.724 215.877 242.996 216.309 238.477Z" fill="white" stroke="#3C4043" stroke-miterlimit="10" stroke-linecap="round" stroke-linejoin="round"/>
<path d="M225.96 234.441C226.508 234.441 226.951 233.998 226.951 233.451C226.951 232.904 226.508 232.46 225.96 232.46C225.413 232.46 224.969 232.904 224.969 233.451C224.969 233.998 225.413 234.441 225.96 234.441Z" fill="#3C4043"/>
<path d="M268.28 330.938C276.725 330.938 283.571 324.098 283.571 315.661C283.571 307.224 276.725 300.384 268.28 300.384C259.834 300.384 252.988 307.224 252.988 315.661C252.988 324.098 259.834 330.938 268.28 330.938Z" fill="#34A853" stroke="#34A853" stroke-miterlimit="10" stroke-linecap="round" stroke-linejoin="round"/>
<path d="M257.138 305.198C254.565 307.931 252.988 311.612 252.988 315.661C252.988 324.098 259.834 330.938 268.28 330.938C272.217 330.938 275.807 329.451 278.518 327.008" stroke="#3C4043" stroke-miterlimit="10" stroke-linecap="round" stroke-linejoin="round"/>
<defs>
<linearGradient id="paint0_linear_8084_2412" x1="292.147" y1="54.9182" x2="291.06" y2="80.7596" gradientUnits="userSpaceOnUse">
<stop stop-color="#4285F4"/>
<stop offset="1" stop-color="#56D5F4"/>
</linearGradient>
<linearGradient id="paint1_linear_8084_2412" x1="417.22" y1="190.603" x2="373.463" y2="248.12" gradientUnits="userSpaceOnUse">
<stop stop-color="#4285F4"/>
<stop offset="1" stop-color="#56D5F4"/>
</linearGradient>
<linearGradient id="paint2_linear_8084_2412" x1="399.152" y1="191.413" x2="354.702" y2="248.269" gradientUnits="userSpaceOnUse">
<stop stop-color="#4285F4"/>
<stop offset="1" stop-color="#56D5F4"/>
</linearGradient>
<linearGradient id="paint3_linear_8084_2412" x1="394.374" y1="218.993" x2="360.706" y2="265.993" gradientUnits="userSpaceOnUse">
<stop stop-color="#4285F4"/>
<stop offset="1" stop-color="#56D5F4"/>
</linearGradient>
<linearGradient id="paint4_linear_8084_2412" x1="25.1133" y1="172.976" x2="65.7445" y2="172.949" gradientUnits="userSpaceOnUse">
<stop stop-color="#943EB8"/>
<stop offset="0.57" stop-color="#E8742F"/>
<stop offset="1" stop-color="#FBB529"/>
</linearGradient>
<linearGradient id="paint5_linear_8084_2412" x1="27.4453" y1="172.976" x2="55.4953" y2="172.963" gradientUnits="userSpaceOnUse">
<stop stop-color="#943EB8"/>
<stop offset="0.57" stop-color="#E8742F"/>
<stop offset="1" stop-color="#FBB529"/>
</linearGradient>
</defs>
</svg>
