<svg width="382" height="281" viewBox="0 0 382 281" fill="none" xmlns="http://www.w3.org/2000/svg">
<rect x="0.0195312" width="381" height="278" rx="13" fill="white"/>
<path d="M246.418 154.226C246.418 154.226 311.216 151.502 320.331 84.1152" stroke="#BDC1C6" stroke-width="1.135" stroke-linecap="round" stroke-linejoin="round"/>
<path d="M103.318 154.983C103.318 154.983 81.2862 110.21 68.8449 132.175C68.8449 132.175 57.678 95.0548 29.3828 96.7627" stroke="#BDC1C6" stroke-width="1.135" stroke-linecap="round" stroke-linejoin="round"/>
<path d="M285.534 111.441C287.216 111.441 288.579 110.077 288.579 108.393C288.579 106.709 287.216 105.345 285.534 105.345C283.852 105.345 282.488 106.709 282.488 108.393C282.488 110.077 283.852 111.441 285.534 111.441Z" fill="#EA4335" stroke="#EA4335" stroke-width="1.135" stroke-linejoin="round"/>
<path d="M50.2282 151.847C51.8147 151.847 53.1009 150.56 53.1009 148.972C53.1009 147.384 51.8147 146.097 50.2282 146.097C48.6416 146.097 47.3555 147.384 47.3555 148.972C47.3555 150.56 48.6416 151.847 50.2282 151.847Z" fill="#FBBC04" stroke="#FBBC04" stroke-width="1.135" stroke-miterlimit="10"/>
<path d="M316.635 149.037C317.661 149.037 318.492 148.205 318.492 147.178C318.492 146.151 317.661 145.319 316.635 145.319C315.609 145.319 314.777 146.151 314.777 147.178C314.777 148.205 315.609 149.037 316.635 149.037Z" fill="#4285F4" stroke="#4285F4" stroke-width="1.135" stroke-miterlimit="10"/>
<path d="M83.7521 94.7727C84.778 94.7727 85.6096 93.9403 85.6096 92.9134C85.6096 91.8866 84.778 91.0542 83.7521 91.0542C82.7262 91.0542 81.8945 91.8866 81.8945 92.9134C81.8945 93.9403 82.7262 94.7727 83.7521 94.7727Z" fill="#E8EAED" stroke="#E8EAED" stroke-width="1.135" stroke-linecap="round" stroke-linejoin="round"/>
<path d="M163.26 241.264C164.286 241.264 165.117 240.431 165.117 239.405C165.117 238.378 164.286 237.545 163.26 237.545C162.234 237.545 161.402 238.378 161.402 239.405C161.402 240.431 162.234 241.264 163.26 241.264Z" fill="#E8EAED" stroke="#E8EAED" stroke-width="1.135" stroke-linecap="round" stroke-linejoin="round"/>
<path d="M255.042 78.689H122.918C120.157 78.689 117.918 80.9275 117.918 83.689V206.235C117.918 208.997 120.157 211.235 122.918 211.235H255.042C257.803 211.235 260.042 208.997 260.042 206.235V83.689C260.042 80.9275 257.803 78.689 255.042 78.689Z" fill="white" stroke="#5C5F61" stroke-opacity="0.25" stroke-width="1.135" stroke-linecap="round" stroke-linejoin="round"/>
<path d="M188.982 180.839C208.772 180.839 224.815 164.781 224.815 144.973C224.815 125.165 208.772 109.107 188.982 109.107C169.192 109.107 153.148 125.165 153.148 144.973C153.148 164.781 169.192 180.839 188.982 180.839Z" fill="#34A853" stroke="#34A853" stroke-width="1.135" stroke-linecap="round" stroke-linejoin="round"/>
<path d="M187.033 147.767H171.805V143.794H187.033V128.566H191.005V143.794H206.233V147.767H191.005V162.995H187.033V147.767Z" fill="white"/>
</svg>
